<svg xmlns="http://www.w3.org/2000/svg" viewBox="0 -960 960 960">
  <g fill="#0d0f14" stroke="#0d0f14" stroke-linejoin="round">
    <path d="M243,-540 A250,250 0 0 1 680,-610" fill="none" stroke-width="156"></path>
    <path d="M677,-490 L807,-593 L623,-690 Z" stroke-width="60"></path>
    <path d="M717,-420 A250,250 0 0 1 280,-420" fill="none" stroke-width="156"></path>
    <path d="M283,-470 L153,-367 L337,-270 Z" stroke-width="60"></path>
  </g>
  <g fill="#ffae00">
    <path d="M243,-540 A250,250 0 0 1 680,-610" fill="none" stroke="#ffae00" stroke-width="96"></path>
    <path d="M677,-490 L807,-593 L623,-690 Z"></path>
    <path d="M717,-420 A250,250 0 0 1 280,-420" fill="none" stroke="#ffae00" stroke-width="96"></path>
    <path d="M283,-470 L153,-367 L337,-270 Z"></path>
  </g>
</svg>